# xmcd
#
# Track frame offsets:
#	150
#	12154
#	28515
#	41042
#	57368
#	69297
#
# Disc length: 1179 seconds
#
# Revision: 0
# Processed by: cddbd v1.5.2PL0 Copyright (c) Steve Scherf et al.
# Submitted via: EasyCDDAExtractor 11.0.2.1
#
DISCID=45049906
DTITLE=JP Tha Hustler - Hustle and Grind: Tha EP
DYEAR=1900
DGENRE=
TTITLE0=Ghetto U.S.A. (Remix Feat. Lowdown and Cyco)
TTITLE1=Fo Da Club (Feat. Sly Boogie, Sparks and Lowdown)
TTITLE2=Top To Tha Bottom (Feat. Cisco Locc and Lowdown)
TTITLE3=Crooked (Feat. Freaks)
TTITLE4=Truth Be Told (Feat. Insane Poetry)
TTITLE5=Hustle and Grind (Remix Feat. Lowdown, Freaks and Cisco Locc)
EXTD=
EXTT0=
EXTT1=
EXTT2=
EXTT3=
EXTT4=
EXTT5=
PLAYORDER=
